<svg version="1.1" xmlns="http://www.w3.org/2000/svg" viewBox="0 0 189.62075805664062 208.06967163085938" width="189.62075805664062" height="208.06967163085938" filter="invert(93%) hue-rotate(180deg)"><!-- svg-source:excalidraw --><metadata><!-- payload-type:application/vnd.excalidraw+json --><!-- payload-version:2 --><!-- payload-start -->eyJ2ZXJzaW9uIjoiMSIsImVuY29kaW5nIjoiYnN0cmluZyIsImNvbXByZXNzZWQiOnRydWUsImVuY29kZWQiOiJ4nHVSy4rbMFx1MDAxNN3nK4xn2zqWXHUwMDFmslx1MDAxZChcdTAwMDPTXHUwMDA2OqVcclxmWcyidKGxblx1MDAxMmFZXHUwMDEyspxHh/x7JSVjTVNqg0DnXt3HOed1XHUwMDE2RbE5KYhcdTAwMTdRXGbHlnBGNTnEXHUwMDFmXHUwMDFjvlx1MDAwNz0wKWwo8/dBjrr1mTtj1LCYz3uiOzCKk1x1MDAxNpI9XHUwMDFiRsJcdTAwMDczUiaTVvZzZqBcdTAwMWbu3blcIj18UrKnRiehyUegzEh96Vx1MDAwNVx1MDAxY3pcdTAwMTBmsNV/2ntcdTAwMTS9+tNGXHUwMDE4dVx1MDAxZEleL9X+61x1MDAxM33+9lSwrl+Z71x1MDAwNfVPfdLbXG5cdTAwMWFaQ8SWQ1xiXHUwMDFk3fw1TlCGmqLOilxm1VU5RU8uWqFcdTAwMDRcdTAwMTVVY/9cdTAwMWPnWY2m6IFRs7NcdTAwMTlcYjdcdM7SqqzTXHUwMDEy41wixdmUslx1MDAwM7bdXHUwMDE5l1PXSYpcdTAwMWJcXCGcp3XZ5PWUc5loXHUwMDExpVx1MDAxMzJcdTAwMTgtO/gsud3fjn2HwP1h6Fx1MDAxN9J2Wy1HQadcdTAwMWOjiVx1MDAxOFx1MDAxNNGWpZC3YZyvzclXt/pYYuObXHUwMDFlz9dcdTAwMTWyXHUwMDFi/H+vbNPtTsDglFxiREhFWmZcdTAwMWNZKFxyW7hcdNUj9aL9XG4zaSv3o1NNjJxPMFx1MDAxM1x1MDAxNI5eyvSvboJeu70pXHUwMDFl5MyvyDnMXHUwMDBl4Fxu46rEXHUwMDA1KnCgOHhcdTAwMTWhW3AlhbctKtPGKlSm4Vx1MDAxOVx1MDAxYr5Y51x1MDAxOV90Y91cdTAwMGJBXHUwMDAxN9nynSvDgqOi5PJcdTAwMDRVdYmrXHUwMDE0W+dkzVx1MDAxNOdMdLfbc9l2oYtHz/b0RWOi1NrYklx1MDAxM1x0lllG1+y3Q7Ir31x1MDAxN8yAslj5XHUwMDBl+iEpLFx1MDAwNXnht0vEe1x1MDAwNoeHf410t/FfPLtcdTAwMTLrTFx1MDAwNF6A8+z8XHUwMDA3Zlx1MDAwNVx1MDAxMbcifQ==<!-- payload-end --></metadata><defs><style class="style-fonts">
      </style></defs><rect x="0" y="0" width="189.62075805664062" height="208.06967163085938" fill="#ffffff"></rect><g stroke-linecap="round" transform="translate(10 10) rotate(0 84.81037902832031 94.03483581542969)"><path d="M32 0 C53.94 -2.09, 74.42 -0.84, 137.62 0 M32 0 C66.6 0.92, 100.26 -0.4, 137.62 0 M137.62 0 C158.23 -0.84, 170.05 9.24, 169.62 32 M137.62 0 C158.45 -0.33, 169.79 12.53, 169.62 32 M169.62 32 C170.72 71.91, 168.84 111.76, 169.62 156.07 M169.62 32 C169.48 66.45, 169.02 100.32, 169.62 156.07 M169.62 156.07 C169.19 178.05, 158.33 188.76, 137.62 188.07 M169.62 156.07 C170.56 175.63, 160.5 189.7, 137.62 188.07 M137.62 188.07 C113.51 189.51, 87.9 187.79, 32 188.07 M137.62 188.07 C105.18 188.12, 72.04 187.51, 32 188.07 M32 188.07 C9.65 189.08, -0.07 175.63, 0 156.07 M32 188.07 C11.26 189.21, 2.17 176.72, 0 156.07 M0 156.07 C-0.19 129.18, 0.56 100.73, 0 32 M0 156.07 C-0.79 130.14, -0.76 104.65, 0 32 M0 32 C1.44 9.51, 10.47 -0.6, 32 0 M0 32 C1.58 12.8, 11.54 1.44, 32 0" stroke="#1e1e1e" stroke-width="2" fill="none"></path></g></svg>