<svg version="1.1" xmlns="http://www.w3.org/2000/svg" viewBox="0 0 620 620" width="620" height="620" filter="invert(93%) hue-rotate(180deg)"><!-- svg-source:excalidraw --><metadata><!-- payload-type:application/vnd.excalidraw+json --><!-- payload-version:2 --><!-- payload-start -->eyJ2ZXJzaW9uIjoiMSIsImVuY29kaW5nIjoiYnN0cmluZyIsImNvbXByZXNzZWQiOnRydWUsImVuY29kZWQiOiJ4nG1SyW7bMFx1MDAxML3nK1x1MDAwNOXa2tq8XHUwMDAyRYG2KVx1MDAxMlx1MDAxNFxyXG74kEPRXHUwMDAzQ44tVlx1MDAxNEmQlJdcdTAwMWH+94woV5SF6EBg3izvzeid76IodidccvE6iuFIieDMkEP8ocX3YCxXXHUwMDEyU5mPrWpcZvWVpXParqfTmphcbpxcdTAwMTaEwmTPbUOEdVxy42pCVT3lXHUwMDBlavu5fZ9JXHKftKqZM5NA8lx1MDAxMVx1MDAxOHfKdFxcIKBcdTAwMDbpLE7/jXFcdTAwMTSd/YtcdTAwMTnOWsbj6aV8XFzZ7/DI/ibN5teR6cNcdTAwMGbf6ov+r2CAOlwid1x1MDAwMkLqiHieJH18XHUwMDFhxVx1MDAwN85cXInYfICVwHelXHUwMDFigd3cdVx1MDAxNFx1MDAxMOuMquCrXHUwMDEyuFx1MDAwNZI7Q6TVxOBcdTAwMWWB/pXQamdUI1lfd0+BXHUwMDE1jISaLVx1MDAxN2LjTqK7LaFlY1x1MDAwNlx1MDAwYnQsL1eZ6Vxi7/uswrOGLqTclVx1MDAxMqy9Uaw0ody1J0hcdTAwMDebtfr0XHUwMDEz88f/XHUwMDEzVFx1MDAxOfxtT+31ZSNEXHUwMDBmc8mgvWlMklx1MDAxYjbJrmw31Vx1MDAxNqCdkOZJNsuyebHsM8Fd8/lcdTAwMTh8VtJcdTAwMWJccjtW+XJRXHUwMDA0qdx+Q6s4P3SLdoNw6FbCw8BGYZNGM9K1pItZXqT5Mitmq0WfXHUwMDE3XFxWY+FC0SqwePSCr1x1MDAxZlx1MDAxYVx1MDAxM603XHUwMDBlR2K68ymekLNccv/nRV/VdphcdTAwMDON2GxcdTAwMDD9VFxmXHUwMDFlJHlcdTAwMTXjJeI9h8OXd/yy9V+MRVx1MDAxN0+PfoF2xfPl7vJcdTAwMDbawVx1MDAwM+QifQ==<!-- payload-end --></metadata><defs><style class="style-fonts">
      </style></defs><rect x="0" y="0" width="620" height="620" fill="#ffffff"></rect><g stroke-linecap="round" transform="translate(10 10) rotate(0 300 300)"><path d="M0 0 C0 0, 0 0, 0 0 M0 0 C0 0, 0 0, 0 0 M-0.26 6.4 C1.14 4.79, 2.54 3.18, 4.99 0.36 M-0.26 6.4 C0.97 4.99, 2.19 3.57, 4.99 0.36 M0.13 12.04 C3.27 8.44, 6.4 4.83, 10.63 -0.03 M0.13 12.04 C3.35 8.34, 6.56 4.64, 10.63 -0.03 M-0.13 18.44 C3.05 14.78, 6.23 11.12, 15.62 0.33 M-0.13 18.44 C3.92 13.78, 7.97 9.13, 15.62 0.33 M0.27 24.08 C6.87 16.48, 13.48 8.88, 21.26 -0.07 M0.27 24.08 C5.17 18.44, 10.07 12.8, 21.26 -0.07 M0 30.48 C8.79 20.38, 17.57 10.27, 26.25 0.29 M0 30.48 C6.84 22.61, 13.68 14.75, 26.25 0.29 M-0.26 36.88 C7.63 27.8, 15.52 18.73, 31.89 -0.1 M-0.26 36.88 C9.89 25.21, 20.03 13.54, 31.89 -0.1 M0.14 42.52 C8.97 32.36, 17.8 22.2, 36.88 0.26 M0.14 42.52 C7.6 33.94, 15.05 25.36, 36.88 0.26 M-0.12 48.92 C10.46 36.74, 21.04 24.57, 42.52 -0.14 M-0.12 48.92 C9.67 37.65, 19.47 26.38, 42.52 -0.14 M0.27 54.56 C12.44 40.56, 24.6 26.57, 47.51 0.22 M0.27 54.56 C13.5 39.34, 26.73 24.12, 47.51 0.22 M0.01 60.96 C12.9 46.13, 25.79 31.3, 53.15 -0.17 M0.01 60.96 C15.46 43.19, 30.9 25.42, 53.15 -0.17 M-0.25 67.36 C16.52 48.06, 33.3 28.76, 58.14 0.19 M-0.25 67.36 C18.75 45.5, 37.74 23.65, 58.14 0.19 M0.14 73 C19.93 50.24, 39.72 27.48, 63.78 -0.21 M0.14 73 C16.08 54.66, 32.02 36.33, 63.78 -0.21 M-0.12 79.4 C26.95 48.26, 54.02 17.12, 68.77 0.15 M-0.12 79.4 C14.32 62.79, 28.76 46.17, 68.77 0.15 M0.28 85.04 C22.36 59.63, 44.45 34.23, 74.41 -0.24 M0.28 85.04 C22.43 59.56, 44.58 34.08, 74.41 -0.24 M0.01 91.44 C15.94 73.12, 31.86 54.81, 79.4 0.12 M0.01 91.44 C19.17 69.4, 38.33 47.37, 79.4 0.12 M-0.25 97.84 C17.73 77.16, 35.71 56.48, 85.04 -0.28 M-0.25 97.84 C22.17 72.05, 44.58 46.26, 85.04 -0.28 M0.15 103.48 C26.99 72.61, 53.82 41.73, 90.03 0.08 M0.15 103.48 C33.07 65.6, 66 27.73, 90.03 0.08 M-0.11 109.88 C20.88 85.72, 41.88 61.56, 95.67 -0.31 M-0.11 109.88 C19.73 87.05, 39.57 64.22, 95.67 -0.31 M0.28 115.52 C24.17 88.04, 48.07 60.55, 100.66 0.05 M0.28 115.52 C37.22 73.02, 74.17 30.52, 100.66 0.05 M0.02 121.92 C27.17 90.68, 54.33 59.44, 106.3 -0.34 M0.02 121.92 C24.89 93.31, 49.76 64.7, 106.3 -0.34 M-0.24 128.32 C36.82 85.68, 73.89 43.04, 111.29 0.02 M-0.24 128.32 C29.58 94.01, 59.4 59.7, 111.29 0.02 M0.15 133.96 C25.04 105.33, 49.93 76.7, 116.27 0.38 M0.15 133.96 C33.01 96.16, 65.87 58.36, 116.27 0.38 M-0.11 140.36 C31.31 104.21, 62.73 68.07, 121.92 -0.02 M-0.11 140.36 C39.28 95.05, 78.66 49.74, 121.92 -0.02 M0.29 146 C44.97 94.59, 89.66 43.18, 126.91 0.34 M0.29 146 C42.22 97.76, 84.16 49.52, 126.91 0.34 M0.02 152.4 C33.42 113.98, 66.81 75.57, 132.55 -0.05 M0.02 152.4 C30.51 117.33, 60.99 82.26, 132.55 -0.05 M-0.24 158.8 C39.86 112.67, 79.96 66.54, 137.54 0.31 M-0.24 158.8 C53.96 96.45, 108.15 34.11, 137.54 0.31 M0.16 164.44 C45.46 112.32, 90.76 60.21, 143.18 -0.09 M0.16 164.44 C46.3 111.36, 92.44 58.28, 143.18 -0.09 M-0.1 170.84 C31.16 134.87, 62.43 98.9, 148.17 0.27 M-0.1 170.84 C47.58 115.99, 95.26 61.14, 148.17 0.27 M0.29 176.48 C33.35 138.45, 66.4 100.43, 153.81 -0.12 M0.29 176.48 C57.31 110.89, 114.32 45.3, 153.81 -0.12 M0.03 182.88 C40.86 135.91, 81.69 88.94, 158.8 0.24 M0.03 182.88 C32.66 145.34, 65.29 107.8, 158.8 0.24 M-0.23 189.27 C44.83 137.44, 89.89 85.6, 164.44 -0.16 M-0.23 189.27 C63.13 116.38, 126.5 43.49, 164.44 -0.16 M0.16 194.92 C57.23 129.27, 114.29 63.63, 169.43 0.2 M0.16 194.92 C63.19 122.41, 126.22 49.91, 169.43 0.2 M-0.1 201.32 C66.5 124.7, 133.1 48.09, 175.07 -0.19 M-0.1 201.32 C36.46 159.26, 73.02 117.2, 175.07 -0.19 M0.3 206.96 C57.91 140.68, 115.53 74.4, 180.06 0.17 M0.3 206.96 C69.81 126.99, 139.32 47.02, 180.06 0.17 M0.03 213.36 C71.69 130.92, 143.35 48.49, 185.7 -0.23 M0.03 213.36 C60.66 143.62, 121.28 73.87, 185.7 -0.23 M-0.23 219.75 C45.5 167.15, 91.23 114.54, 190.69 0.13 M-0.23 219.75 C47.64 164.69, 95.5 109.63, 190.69 0.13 M0.17 225.4 C59.88 156.7, 119.59 88.01, 196.33 -0.26 M0.17 225.4 C51 166.92, 101.84 108.44, 196.33 -0.26 M-0.09 231.8 C58.1 164.86, 116.29 97.92, 201.32 0.1 M-0.09 231.8 C41 184.52, 82.1 137.24, 201.32 0.1 M0.3 237.44 C64.68 163.38, 129.06 89.32, 206.96 -0.3 M0.3 237.44 C75.72 150.67, 151.15 63.91, 206.96 -0.3 M0.04 243.84 C47.9 188.77, 95.77 133.71, 211.95 0.06 M0.04 243.84 C68.66 164.89, 137.29 85.95, 211.95 0.06 M-0.22 250.23 C75.09 163.6, 150.4 76.96, 217.59 -0.33 M-0.22 250.23 C52.03 190.12, 104.28 130.02, 217.59 -0.33 M0.17 255.88 C82.5 161.17, 164.82 66.47, 222.58 0.03 M0.17 255.88 C72.4 172.79, 144.62 89.71, 222.58 0.03 M-0.09 262.27 C70.26 181.34, 140.61 100.41, 228.22 -0.36 M-0.09 262.27 C72.36 178.93, 144.8 95.59, 228.22 -0.36 M0.3 267.92 C47.81 213.27, 95.32 158.61, 233.21 0 M0.3 267.92 C83.9 171.76, 167.49 75.6, 233.21 0 M0.04 274.32 C62.46 202.51, 124.88 130.7, 238.19 0.36 M0.04 274.32 C63.9 200.86, 127.76 127.4, 238.19 0.36 M-0.22 280.71 C90.59 176.25, 181.4 71.79, 243.84 -0.04 M-0.22 280.71 C52.49 220.08, 105.21 159.44, 243.84 -0.04 M0.18 286.36 C58.27 219.53, 116.36 152.7, 248.82 0.32 M0.18 286.36 C50.09 228.93, 100.01 171.51, 248.82 0.32 M-0.08 292.75 C71.61 210.28, 143.31 127.8, 254.47 -0.07 M-0.08 292.75 C82.17 198.14, 164.42 103.52, 254.47 -0.07 M0.31 298.4 C55.04 235.43, 109.78 172.47, 259.45 0.29 M0.31 298.4 C67.96 220.57, 135.62 142.74, 259.45 0.29 M0.05 304.8 C80.22 212.57, 160.39 120.35, 265.1 -0.11 M0.05 304.8 C91.48 199.62, 182.91 94.44, 265.1 -0.11 M-0.21 311.19 C93.26 203.67, 186.73 96.14, 270.08 0.25 M-0.21 311.19 C62.62 238.91, 125.46 166.62, 270.08 0.25 M0.18 316.84 C101.23 200.59, 202.28 84.35, 275.73 -0.14 M0.18 316.84 C105.89 195.23, 211.61 73.62, 275.73 -0.14 M-0.08 323.23 C98.45 209.89, 196.98 96.54, 280.71 0.22 M-0.08 323.23 C94.23 214.74, 188.54 106.25, 280.71 0.22 M0.31 328.88 C105.91 207.4, 211.5 85.93, 286.36 -0.18 M0.31 328.88 C108.68 204.21, 217.05 79.55, 286.36 -0.18 M0.05 335.27 C88.16 233.92, 176.27 132.56, 291.34 0.18 M0.05 335.27 C66.95 258.32, 133.85 181.36, 291.34 0.18 M-0.21 341.67 C108.86 216.21, 217.93 90.74, 296.99 -0.21 M-0.21 341.67 C91.24 236.48, 182.68 131.28, 296.99 -0.21 M0.19 347.32 C72.31 264.34, 144.44 181.37, 301.97 0.15 M0.19 347.32 C63.48 274.5, 126.77 201.69, 301.97 0.15 M-0.08 353.71 C116.83 219.23, 233.74 84.74, 307.62 -0.25 M-0.08 353.71 C118.34 217.49, 236.75 81.27, 307.62 -0.25 M0.32 359.36 C113.19 229.51, 226.07 99.66, 312.6 0.11 M0.32 359.36 C65.74 284.1, 131.16 208.84, 312.6 0.11 M0.06 365.75 C124.23 222.91, 248.41 80.06, 318.25 -0.28 M0.06 365.75 C83.57 269.69, 167.07 173.62, 318.25 -0.28 M-0.2 372.15 C75.26 285.35, 150.71 198.54, 323.23 0.08 M-0.2 372.15 C129.12 223.38, 258.44 74.61, 323.23 0.08 M0.19 377.79 C112.82 248.23, 225.44 118.67, 328.88 -0.31 M0.19 377.79 C75.84 290.78, 151.48 203.76, 328.88 -0.31 M-0.07 384.19 C127.01 238.01, 254.08 91.82, 333.86 0.05 M-0.07 384.19 C129.89 234.69, 259.84 85.19, 333.86 0.05 M0.32 389.84 C117.12 255.47, 233.92 121.11, 339.51 -0.35 M0.32 389.84 C73.28 305.91, 146.23 221.99, 339.51 -0.35 M0.06 396.23 C100.51 280.68, 200.96 165.13, 344.49 0.01 M0.06 396.23 C77 307.72, 153.94 219.21, 344.49 0.01 M-0.2 402.63 C92.5 296, 185.19 189.36, 349.48 0.37 M-0.2 402.63 C133.35 249, 266.9 95.37, 349.48 0.37 M0.2 408.27 C77.42 319.44, 154.64 230.61, 355.12 -0.02 M0.2 408.27 C137.15 250.72, 274.11 93.17, 355.12 -0.02 M-0.07 414.67 C121.34 275.01, 242.75 135.34, 360.11 0.34 M-0.07 414.67 C119.8 276.78, 239.66 138.89, 360.11 0.34 M-0.33 421.07 C135.79 264.49, 271.9 107.91, 365.75 -0.06 M-0.33 421.07 C145.21 253.65, 290.74 86.23, 365.75 -0.06 M0.07 426.71 C131.68 275.31, 263.29 123.9, 370.74 0.3 M0.07 426.71 C114 295.65, 227.93 164.59, 370.74 0.3 M-0.19 433.11 C124.2 290.01, 248.6 146.9, 376.38 -0.09 M-0.19 433.11 C81.45 339.19, 163.09 245.27, 376.38 -0.09 M0.2 438.75 C105.5 317.62, 210.81 196.48, 381.37 0.27 M0.2 438.75 C146.1 270.91, 292 103.07, 381.37 0.27 M-0.06 445.15 C89.6 342.01, 179.26 238.87, 387.01 -0.13 M-0.06 445.15 C92.65 338.5, 185.37 231.84, 387.01 -0.13 M-0.32 451.55 C86.14 352.08, 172.61 252.61, 392 0.23 M-0.32 451.55 C107.04 328.04, 214.41 204.53, 392 0.23 M0.07 457.19 C149.82 284.92, 299.58 112.65, 397.64 -0.16 M0.07 457.19 C119 320.39, 237.92 183.58, 397.64 -0.16 M-0.19 463.59 C108.45 338.61, 217.09 213.64, 402.63 0.2 M-0.19 463.59 C133.63 309.65, 267.44 155.72, 402.63 0.2 M0.21 469.23 C93.62 361.77, 187.03 254.31, 408.27 -0.2 M0.21 469.23 C108.96 344.13, 217.71 219.03, 408.27 -0.2 M-0.06 475.63 C111.08 347.78, 222.22 219.93, 413.26 0.16 M-0.06 475.63 C143.78 310.16, 287.62 144.69, 413.26 0.16 M-0.32 482.03 C89.55 378.65, 179.41 275.27, 418.9 -0.23 M-0.32 482.03 C104.51 361.44, 209.33 240.86, 418.9 -0.23 M0.08 487.67 C95.52 377.87, 190.97 268.07, 423.89 0.13 M0.08 487.67 C147.68 317.88, 295.27 148.09, 423.89 0.13 M-0.18 494.07 C137.96 335.15, 276.11 176.23, 429.53 -0.26 M-0.18 494.07 C169.84 298.48, 339.86 102.89, 429.53 -0.26 M0.21 499.71 C134.14 345.65, 268.07 191.58, 434.52 0.1 M0.21 499.71 C172.89 301.07, 345.57 102.43, 434.52 0.1 M-0.05 506.11 C132.56 353.56, 265.17 201.01, 440.16 -0.3 M-0.05 506.11 C126.18 360.9, 252.41 215.69, 440.16 -0.3 M-0.31 512.51 C111.32 384.09, 222.96 255.66, 445.15 0.06 M-0.31 512.51 C177.05 308.48, 354.41 104.45, 445.15 0.06 M0.08 518.15 C120.48 379.65, 240.88 241.15, 450.79 -0.33 M0.08 518.15 C155.21 339.69, 310.34 161.24, 450.79 -0.33 M-0.18 524.55 C157.87 342.73, 315.93 160.91, 455.78 0.03 M-0.18 524.55 C131.86 372.65, 263.9 220.76, 455.78 0.03 M0.22 530.19 C136.33 373.62, 272.44 217.04, 461.42 -0.37 M0.22 530.19 C104.64 410.07, 209.06 289.95, 461.42 -0.37 M-0.05 536.59 C118.29 400.46, 236.63 264.32, 466.41 -0.01 M-0.05 536.59 C116.13 402.95, 232.3 269.31, 466.41 -0.01 M-0.31 542.99 C105.2 421.61, 210.72 300.23, 471.4 0.35 M-0.31 542.99 C107.85 418.57, 216 294.15, 471.4 0.35 M0.09 548.63 C186.82 333.82, 373.55 119.01, 477.04 -0.04 M0.09 548.63 C138.97 388.86, 277.86 229.09, 477.04 -0.04 M-0.17 555.03 C122.21 414.24, 244.59 273.46, 482.03 0.32 M-0.17 555.03 C137.84 396.26, 275.86 237.49, 482.03 0.32 M0.22 560.67 C167.08 368.73, 333.93 176.78, 487.67 -0.08 M0.22 560.67 C130.93 410.3, 261.65 259.93, 487.67 -0.08 M-0.04 567.07 C171.88 369.29, 343.81 171.52, 492.66 0.28 M-0.04 567.07 C181.33 358.42, 362.71 149.78, 492.66 0.28 M-0.3 573.47 C124.75 429.61, 249.8 285.76, 498.3 -0.11 M-0.3 573.47 C134.12 418.84, 268.54 264.2, 498.3 -0.11 M0.09 579.11 C118.39 443.02, 236.69 306.93, 503.29 0.25 M0.09 579.11 C142.69 415.07, 285.28 251.03, 503.29 0.25 M-0.17 585.51 C113.99 454.19, 228.14 322.87, 508.93 -0.15 M-0.17 585.51 C113.18 455.11, 226.53 324.72, 508.93 -0.15 M0.22 591.15 C103.34 472.53, 206.46 353.91, 513.92 0.21 M0.22 591.15 C142.98 426.93, 285.73 262.71, 513.92 0.21 M-0.04 597.55 C172.64 398.91, 345.31 200.28, 519.56 -0.18 M-0.04 597.55 C151.67 423.03, 303.38 248.51, 519.56 -0.18 M2.98 600.17 C157.8 422.08, 312.62 243.98, 524.55 0.18 M2.98 600.17 C125.59 459.13, 248.19 318.09, 524.55 0.18 M7.97 600.53 C116.22 476, 224.47 351.47, 530.19 -0.22 M7.97 600.53 C154.04 432.49, 300.12 264.46, 530.19 -0.22 M13.61 600.14 C189.31 398.02, 365.01 195.91, 535.18 0.14 M13.61 600.14 C157.46 434.66, 301.3 269.19, 535.18 0.14 M18.6 600.5 C145.96 453.99, 273.31 307.48, 540.82 -0.25 M18.6 600.5 C136.37 465.02, 254.15 329.53, 540.82 -0.25 M24.24 600.1 C179.05 422.02, 333.85 243.94, 545.81 0.11 M24.24 600.1 C211.21 385.02, 398.18 169.94, 545.81 0.11 M29.23 600.46 C237.75 360.59, 446.28 120.71, 551.45 -0.28 M29.23 600.46 C137.09 476.38, 244.96 352.3, 551.45 -0.28 M34.87 600.07 C199.24 410.99, 363.61 221.9, 556.44 0.08 M34.87 600.07 C180.39 432.67, 325.91 265.27, 556.44 0.08 M39.86 600.43 C245.24 364.16, 450.63 127.89, 562.08 -0.32 M39.86 600.43 C216.07 397.72, 392.29 195.01, 562.08 -0.32 M45.5 600.04 C198.24 424.33, 350.98 248.63, 567.07 0.04 M45.5 600.04 C186.73 437.57, 327.96 275.1, 567.07 0.04 M50.49 600.4 C211.37 415.32, 372.25 230.25, 572.71 -0.35 M50.49 600.4 C243.88 377.92, 437.28 155.45, 572.71 -0.35 M56.13 600 C209.15 423.97, 362.17 247.94, 577.7 0.01 M56.13 600 C162.9 477.18, 269.67 354.36, 577.7 0.01 M61.12 600.36 C263.68 367.34, 466.24 134.32, 582.69 0.37 M61.12 600.36 C214.92 423.43, 368.72 246.5, 582.69 0.37 M66.76 599.97 C245.53 394.32, 424.29 188.67, 588.33 -0.03 M66.76 599.97 C269.74 366.46, 472.73 132.96, 588.33 -0.03 M71.75 600.33 C197.66 455.48, 323.58 310.63, 593.32 0.33 M71.75 600.33 C248.17 397.38, 424.59 194.43, 593.32 0.33 M77.39 599.93 C197.04 462.29, 316.69 324.65, 598.96 -0.06 M77.39 599.93 C270.42 377.88, 463.45 155.82, 598.96 -0.06 M82.38 600.29 C205.02 459.21, 327.66 318.13, 600.01 4.83 M82.38 600.29 C271.35 382.91, 460.32 165.52, 600.01 4.83 M88.02 599.9 C243.96 420.51, 399.89 241.13, 600.41 10.47 M88.02 599.9 C257.55 404.88, 427.07 209.87, 600.41 10.47 M93.01 600.26 C248.77 421.08, 404.53 241.89, 600.14 16.87 M93.01 600.26 C233.74 438.37, 374.46 276.49, 600.14 16.87 M98.65 599.86 C239.5 437.83, 380.36 275.8, 599.88 23.26 M98.65 599.86 C245.19 431.29, 391.73 262.72, 599.88 23.26 M103.64 600.22 C275.86 402.1, 448.08 203.99, 600.28 28.91 M103.64 600.22 C210.5 477.29, 317.36 354.36, 600.28 28.91 M108.63 600.58 C224.31 467.51, 339.99 334.43, 600.02 35.31 M108.63 600.58 C262.43 423.65, 416.23 246.72, 600.02 35.31 M114.27 600.19 C217.85 481.03, 321.43 361.88, 600.41 40.95 M114.27 600.19 C286.97 401.52, 459.67 202.85, 600.41 40.95 M119.26 600.55 C218.33 486.58, 317.4 372.61, 600.15 47.35 M119.26 600.55 C258.08 440.85, 396.9 281.15, 600.15 47.35 M124.9 600.15 C279.62 422.17, 434.34 244.19, 599.89 53.74 M124.9 600.15 C273.28 429.47, 421.65 258.78, 599.89 53.74 M129.89 600.51 C315.13 387.42, 500.37 174.32, 600.28 59.39 M129.89 600.51 C295.84 409.61, 461.79 218.7, 600.28 59.39 M135.53 600.12 C259.55 457.45, 383.57 314.78, 600.02 65.79 M135.53 600.12 C292.86 419.14, 450.18 238.15, 600.02 65.79 M140.52 600.48 C307.11 408.84, 473.71 217.19, 600.41 71.43 M140.52 600.48 C267.56 454.33, 394.61 308.18, 600.41 71.43 M146.16 600.09 C319.4 400.79, 492.65 201.5, 600.15 77.83 M146.16 600.09 C293.2 430.93, 440.24 261.78, 600.15 77.83 M151.15 600.45 C257.64 477.94, 364.13 355.43, 599.89 84.22 M151.15 600.45 C271.16 462.39, 391.17 324.33, 599.89 84.22 M156.79 600.05 C323.88 407.83, 490.97 215.62, 600.29 89.87 M156.79 600.05 C332 398.5, 507.2 196.95, 600.29 89.87 M161.78 600.41 C296.53 445.39, 431.29 290.37, 600.03 96.26 M161.78 600.41 C324.92 412.74, 488.06 225.07, 600.03 96.26 M167.42 600.02 C306.93 439.52, 446.45 279.03, 600.42 101.91 M167.42 600.02 C304.63 442.18, 441.83 284.34, 600.42 101.91 M172.41 600.38 C268.12 490.27, 363.83 380.17, 600.16 108.31 M172.41 600.38 C289.66 465.5, 406.9 330.62, 600.16 108.31 M178.05 599.98 C283.58 478.59, 389.1 357.19, 599.9 114.7 M178.05 599.98 C301.01 458.53, 423.97 317.08, 599.9 114.7 M183.04 600.34 C349.76 408.55, 516.49 216.75, 600.29 120.35 M183.04 600.34 C305.66 459.28, 428.28 318.22, 600.29 120.35 M188.68 599.95 C334.85 431.8, 481.02 263.65, 600.03 126.74 M188.68 599.95 C336.16 430.29, 483.64 260.63, 600.03 126.74 M193.67 600.31 C279.47 501.61, 365.27 402.9, 600.42 132.39 M193.67 600.31 C352.3 417.82, 510.93 235.34, 600.42 132.39 M199.31 599.91 C357.65 417.77, 515.98 235.63, 600.16 138.79 M199.31 599.91 C357.71 417.69, 516.12 235.47, 600.16 138.79 M204.3 600.27 C361.08 419.92, 517.86 239.56, 599.9 145.18 M204.3 600.27 C346.05 437.21, 487.8 274.14, 599.9 145.18 M209.94 599.88 C322.69 470.18, 435.44 340.47, 600.3 150.83 M209.94 599.88 C333.31 457.96, 456.68 316.04, 600.3 150.83 M214.93 600.24 C313.78 486.53, 412.62 372.81, 600.03 157.22 M214.93 600.24 C304.38 497.34, 393.83 394.44, 600.03 157.22 M219.92 600.6 C341.34 460.92, 462.76 321.24, 600.43 162.87 M219.92 600.6 C323.91 480.97, 427.91 361.33, 600.43 162.87 M225.56 600.2 C321.28 490.09, 416.99 379.98, 600.17 169.26 M225.56 600.2 C331.48 478.35, 437.4 356.51, 600.17 169.26 M230.55 600.56 C352.62 460.13, 474.69 319.7, 599.91 175.66 M230.55 600.56 C325.32 491.53, 420.1 382.51, 599.91 175.66 M236.19 600.17 C315.85 508.53, 395.52 416.88, 600.3 181.31 M236.19 600.17 C315.62 508.79, 395.05 417.42, 600.3 181.31 M241.18 600.53 C359.7 464.18, 478.22 327.84, 600.04 187.7 M241.18 600.53 C346.35 479.54, 451.53 358.55, 600.04 187.7 M246.82 600.13 C365.28 463.87, 483.73 327.6, 600.43 193.35 M246.82 600.13 C382.74 443.78, 518.66 287.42, 600.43 193.35 M251.81 600.49 C352.18 485.02, 452.56 369.55, 600.17 199.74 M251.81 600.49 C337.99 501.35, 424.17 402.21, 600.17 199.74 M257.45 600.1 C379.05 460.21, 500.65 320.32, 599.91 206.14 M257.45 600.1 C382.38 456.38, 507.32 312.66, 599.91 206.14 M262.44 600.46 C376.07 469.74, 489.71 339.01, 600.31 211.78 M262.44 600.46 C337.33 514.3, 412.23 428.14, 600.31 211.78 M268.08 600.07 C398.39 450.16, 528.71 300.25, 600.04 218.18 M268.08 600.07 C394.35 454.81, 520.62 309.56, 600.04 218.18 M273.07 600.43 C394.05 461.25, 515.04 322.06, 600.44 223.83 M273.07 600.43 C389.48 466.51, 505.89 332.59, 600.44 223.83 M278.71 600.03 C382.66 480.45, 486.62 360.86, 600.18 230.22 M278.71 600.03 C371.75 493, 464.8 385.96, 600.18 230.22 M283.7 600.39 C361.2 511.24, 438.7 422.08, 599.92 236.62 M283.7 600.39 C355.25 518.07, 426.81 435.76, 599.92 236.62 M289.34 600 C409.38 461.91, 529.42 323.82, 600.31 242.26 M289.34 600 C409.97 461.23, 530.6 322.46, 600.31 242.26 M294.33 600.36 C411.3 465.8, 528.27 331.23, 600.05 248.66 M294.33 600.36 C370.27 512.99, 446.22 425.63, 600.05 248.66 M299.97 599.96 C414.59 468.11, 529.21 336.25, 600.44 254.31 M299.97 599.96 C362.83 527.65, 425.7 455.33, 600.44 254.31 M304.96 600.32 C412.52 476.58, 520.09 352.84, 600.18 260.7 M304.96 600.32 C385.88 507.23, 466.8 414.14, 600.18 260.7 M310.6 599.93 C389.64 509, 468.68 418.07, 599.92 267.1 M310.6 599.93 C404.4 492.02, 498.21 384.11, 599.92 267.1 M315.59 600.29 C410.99 490.54, 506.39 380.79, 600.32 272.74 M315.59 600.29 C427.49 471.56, 539.4 342.82, 600.32 272.74 M321.23 599.89 C429.18 475.7, 537.14 351.52, 600.05 279.14 M321.23 599.89 C416.4 490.41, 511.57 380.93, 600.05 279.14 M326.22 600.25 C381.6 536.55, 436.98 472.84, 600.45 284.78 M326.22 600.25 C417.35 495.42, 508.48 390.59, 600.45 284.78 M331.2 600.61 C388.2 535.05, 445.2 469.48, 600.19 291.18 M331.2 600.61 C413.63 505.79, 496.07 410.96, 600.19 291.18 M336.85 600.22 C398.6 529.18, 460.36 458.14, 599.93 297.58 M336.85 600.22 C404.36 522.56, 471.87 444.9, 599.93 297.58 M341.83 600.58 C444.8 482.13, 547.76 363.69, 600.32 303.22 M341.83 600.58 C420.15 510.49, 498.47 420.39, 600.32 303.22 M347.48 600.18 C414.58 522.99, 481.68 445.8, 600.06 309.62 M347.48 600.18 C440.45 493.23, 533.42 386.28, 600.06 309.62 M352.46 600.54 C441.73 497.86, 530.99 395.18, 600.45 315.26 M352.46 600.54 C414.91 528.71, 477.36 456.87, 600.45 315.26 M358.11 600.15 C428.18 519.54, 498.26 438.93, 600.19 321.66 M358.11 600.15 C432.28 514.83, 506.44 429.51, 600.19 321.66 M363.09 600.51 C427.68 526.21, 492.27 451.9, 599.93 328.06 M363.09 600.51 C436.83 515.68, 510.57 430.86, 599.93 328.06 M368.74 600.12 C429.72 529.96, 490.71 459.8, 600.33 333.7 M368.74 600.12 C449.47 507.24, 530.21 414.36, 600.33 333.7 M373.72 600.48 C436 528.84, 498.27 457.2, 600.06 340.1 M373.72 600.48 C436.53 528.23, 499.33 455.98, 600.06 340.1 M379.37 600.08 C447.25 521.99, 515.14 443.9, 600.46 345.74 M379.37 600.08 C425.68 546.8, 472 493.52, 600.46 345.74 M384.35 600.44 C442.24 533.85, 500.12 467.27, 600.2 352.14 M384.35 600.44 C467.15 505.19, 549.95 409.94, 600.2 352.14 M390 600.05 C453.56 526.92, 517.13 453.8, 599.94 358.54 M390 600.05 C440.62 541.81, 491.24 483.58, 599.94 358.54 M394.98 600.41 C459.73 525.93, 524.47 451.45, 600.33 364.18 M394.98 600.41 C456.72 529.39, 518.46 458.37, 600.33 364.18 M400.63 600.01 C459.52 532.26, 518.41 464.52, 600.07 370.58 M400.63 600.01 C447.13 546.52, 493.63 493.02, 600.07 370.58 M405.61 600.37 C452.7 546.2, 499.79 492.03, 599.81 376.98 M405.61 600.37 C471.05 525.09, 536.49 449.82, 599.81 376.98 M411.26 599.98 C466.39 536.56, 521.52 473.13, 600.2 382.62 M411.26 599.98 C451.45 553.73, 491.65 507.49, 600.2 382.62 M416.24 600.34 C460.01 550, 503.77 499.65, 599.94 389.02 M416.24 600.34 C460.05 549.94, 503.87 499.54, 599.94 389.02 M421.89 599.94 C468.64 546.16, 515.4 492.37, 600.33 394.66 M421.89 599.94 C465.53 549.74, 509.17 499.54, 600.33 394.66 M426.87 600.3 C470.78 549.8, 514.68 499.29, 600.07 401.06 M426.87 600.3 C494.18 522.87, 561.49 445.45, 600.07 401.06 M432.52 599.91 C489.09 534.83, 545.67 469.74, 599.81 407.46 M432.52 599.91 C471.11 555.51, 509.71 511.11, 599.81 407.46 M437.5 600.27 C470.33 562.51, 503.15 524.75, 600.21 413.1 M437.5 600.27 C471.38 561.3, 505.26 522.33, 600.21 413.1 M443.15 599.87 C476.86 561.09, 510.58 522.3, 599.95 419.5 M443.15 599.87 C491.89 543.8, 540.63 487.73, 599.95 419.5 M448.13 600.23 C502.77 537.38, 557.41 474.52, 600.34 425.14 M448.13 600.23 C502.28 537.95, 556.42 475.67, 600.34 425.14 M453.12 600.59 C504.52 541.46, 555.92 482.33, 600.08 431.54 M453.12 600.59 C491.65 556.27, 530.18 511.95, 600.08 431.54 M458.76 600.2 C510.06 541.19, 561.36 482.18, 599.82 437.94 M458.76 600.2 C504.89 547.14, 551.01 494.08, 599.82 437.94 M463.75 600.56 C513.17 543.71, 562.59 486.86, 600.21 443.58 M463.75 600.56 C504.59 553.58, 545.43 506.6, 600.21 443.58 M469.39 600.17 C497.7 567.61, 526 535.05, 599.95 449.98 M469.39 600.17 C502.75 561.8, 536.1 523.43, 599.95 449.98 M474.38 600.53 C503.9 566.56, 533.42 532.6, 600.34 455.62 M474.38 600.53 C508.94 560.77, 543.5 521.02, 600.34 455.62 M480.02 600.13 C513.86 561.21, 547.69 522.29, 600.08 462.02 M480.02 600.13 C517.49 557.04, 554.95 513.94, 600.08 462.02 M485.01 600.49 C520.74 559.39, 556.46 518.29, 599.82 468.42 M485.01 600.49 C516.81 563.91, 548.62 527.32, 599.82 468.42 M490.65 600.1 C521.85 564.21, 553.04 528.33, 600.22 474.06 M490.65 600.1 C524.08 561.65, 557.5 523.2, 600.22 474.06 M495.64 600.46 C526.91 564.48, 558.19 528.51, 599.95 480.46 M495.64 600.46 C520.09 572.33, 544.54 544.2, 599.95 480.46 M501.28 600.06 C532.39 564.28, 563.49 528.5, 600.35 486.1 M501.28 600.06 C529.07 568.1, 556.86 536.13, 600.35 486.1 M506.27 600.42 C531.6 571.29, 556.92 542.16, 600.09 492.5 M506.27 600.42 C535.47 566.84, 564.66 533.25, 600.09 492.5 M511.91 600.03 C531.3 577.72, 550.69 555.42, 599.83 498.9 M511.91 600.03 C540.2 567.49, 568.48 534.96, 599.83 498.9 M516.9 600.39 C538.05 576.06, 559.2 551.73, 600.22 504.54 M516.9 600.39 C542.69 570.72, 568.48 541.05, 600.22 504.54 M522.54 599.99 C539.42 580.58, 556.29 561.17, 599.96 510.94 M522.54 599.99 C549.61 568.86, 576.67 537.73, 599.96 510.94 M527.53 600.35 C545.46 579.72, 563.4 559.1, 600.35 516.58 M527.53 600.35 C547.13 577.81, 566.72 555.27, 600.35 516.58 M533.17 599.96 C552.06 578.24, 570.94 556.52, 600.09 522.98 M533.17 599.96 C554.76 575.13, 576.34 550.3, 600.09 522.98 M538.16 600.32 C550.76 585.82, 563.37 571.32, 599.83 529.38 M538.16 600.32 C554.62 581.38, 571.09 562.44, 599.83 529.38 M543.8 599.92 C563.64 577.1, 583.48 554.28, 600.23 535.02 M543.8 599.92 C557.15 584.57, 570.49 569.23, 600.23 535.02 M548.79 600.28 C561.48 585.69, 574.16 571.1, 599.96 541.42 M548.79 600.28 C559.94 587.46, 571.08 574.64, 599.96 541.42 M554.43 599.89 C569.47 582.6, 584.5 565.31, 600.36 547.06 M554.43 599.89 C569.35 582.73, 584.27 565.57, 600.36 547.06 M559.42 600.25 C569.96 588.12, 580.5 576, 600.1 553.46 M559.42 600.25 C570.56 587.44, 581.69 574.63, 600.1 553.46 M564.41 600.61 C574.07 589.49, 583.73 578.38, 599.84 559.85 M564.41 600.61 C573.56 590.08, 582.72 579.55, 599.84 559.85 M570.05 600.21 C578.58 590.4, 587.12 580.58, 600.23 565.5 M570.05 600.21 C576.83 592.42, 583.61 584.62, 600.23 565.5 M575.04 600.57 C580.37 594.44, 585.7 588.31, 599.97 571.9 M575.04 600.57 C583.66 590.66, 592.27 580.75, 599.97 571.9 M580.68 600.18 C587.1 592.8, 593.51 585.42, 600.36 577.54 M580.68 600.18 C586.53 593.45, 592.38 586.72, 600.36 577.54 M585.67 600.54 C590.56 594.91, 595.46 589.28, 600.1 583.94 M585.67 600.54 C590.47 595.02, 595.27 589.5, 600.1 583.94 M591.31 600.15 C594.37 596.63, 597.43 593.11, 599.84 590.33 M591.31 600.15 C594.35 596.65, 597.39 593.15, 599.84 590.33 M596.3 600.51 C597.87 598.7, 599.44 596.89, 600.24 595.98 M596.3 600.51 C597.1 599.59, 597.89 598.67, 600.24 595.98" stroke="#ced4da" stroke-width="0.5" fill="none"></path><path d="M0 0 C122.49 0, 244.97 0, 600 0 M0 0 C147.34 0, 294.67 0, 600 0 M600 0 C600 176.99, 600 353.99, 600 600 M600 0 C600 169.68, 600 339.37, 600 600 M600 600 C363.4 600, 126.8 600, 0 600 M600 600 C362.53 600, 125.07 600, 0 600 M0 600 C0 411.36, 0 222.72, 0 0 M0 600 C0 437.83, 0 275.66, 0 0" stroke="transparent" stroke-width="1" fill="none"></path></g></svg>