<svg version="1.1" xmlns="http://www.w3.org/2000/svg" viewBox="0 0 802.1953125 1780" width="802.1953125" height="1780">
        <!-- svg-source:excalidraw -->
        <metadata>
                <!-- payload-type:application/vnd.excalidraw+json -->
                <!-- payload-version:2 -->
                <!-- payload-start -->eyJ2ZXJzaW9uIjoiMSIsImVuY29kaW5nIjoiYnN0cmluZyIsImNvbXByZXNzZWQiOnRydWUsImVuY29kZWQiOiJ4nO2da3OqyLqAv8+voLK/rKlcdTAwMWFcdTAwMWT6RnfPl3NMvMRcdTAwMTgvXHUwMDEx72edSiGgXHUwMDEyXHUwMDExXHUwMDEwUGN2zX/fjVmJJuI6kZAzziRrataMXHJC07zPe+u323//XCJJZ+HaM8/+kM7Me12zLcPXVme/Re1L01x1MDAwZizXXHUwMDExh+Dmc+AufH1z5jLQXcPMrMzh0jJXf/z+O7A8NiVspjmzgHrBclx0XHUwMDE0fWjDpasjOFxyZM1cdTAwMTg53nI0t0NcdTAwMWRNgnEgz6bL+eNNTNucmU5cdTAwMTiIy/6P+CxJ/978LY5YRnSr6q3SLywmw/xAXHUwMDFiXzN1uUJLpb356uakp777plx1MDAxZWrO2Da3h+5FO4Ly8+d19CB4+3llXHUwMDE54US04Z1zJqY1noSiXHUwMDExUGXb+njhP6RtS1x1MDAxMPru1LxwbdeP7lx1MDAxZfqaXHUwMDEzeJovXHUwMDFlZHv/oaZPx767cIzn8/5lclM3R9tzRpZtq+F6c3UxvmL0z17do/ujl/BV+6FviVx1MDAxYo4njlx1MDAxOURcdTAwMDNcbp5bXU/TrTBcdTAwMWFcdTAwMDEgb59cIuqdVzY2Y/+/2z752swsR4PvLGz7udlyXGYzXHUwMDFh0jNccr64m2P8uNvTi9u+XHUwMDE19KPlz23fTTO6MGCMXHUwMDExTGTAno9shVxyQPK6teY6XHUwMDFiwVx1MDAwM5BcdTAwMTKiMFxu8LZbQV6IULi57EizXHUwMDAzczv+Ud9cbjvitX3EhWdoj19cdTAwMTHvXHUwMDE5QaRQzGTIn4/bljN9/fy2q0+3d/ll57leSeyDkbvOK+VcZixX+3yxulpfXbXovsSG5n34Ulix/FJYd1x1MDAwNfNJWFx1MDAwMeJZgsVcdTAwMTCQfZmFR0jsv1x1MDAxMEZcdTAwMWGWfy6tIzbiI+1cdTAwMTSldStqtdDWXHUwMDFhy1xuXCLzuuHfXHUwMDA091ohX14+30CccEnWWnVwQcnspsNhN6O4rUb+7MfxI6SexUv9i7OfxFx1MDAxYlwiQFx1MDAwMUIoVrwpPiTeXHUwMDA0ICGNkLJ0pZvIXFyRKTpCurfCXHUwMDFhXHSpePrmwpHUqVx1MDAxOepcdTAwMTPpwrbELb9cdTAwMDW/7siF64Sq9bAhVHnRWtRmllx1MDAxZL1I9uKSOdtcdTAwMWFHY3Fmm6NcdTAwMWRcYsRwhJawQc+HQ9fbXHUwMDFl1cX1NMsx/f235PrW2HI0u/Wm7mqL0G2awWOHQ39h7o6MeflsXHUwMDAyspD8XHUwMDA0c4T0ZsnrXHUwMDA0nj7VVXma6+rz5SpcdOaUxWGOszKV0a4u/NycV4N1buLWNOX8PFBh0CqHmWWwyzm+ay2H7WGxpOCrq1x1MDAwMr53Na+ySsA5fzvnkCPMXHUwMDEx5/KuXHUwMDA0P7lMXHUwMDA0vm59tmJcdTAwMDRcdTAwMTGMOVx1MDAwMNvvpcQ5QVx1MDAxNFx1MDAxZGPFfsa5avpRv/9cdTAwMWWU73U2XHUwMDFkxk2Wu1xcdMPSeXh3OSCjikFr48skjDN5n3Hhi2YxerchZ1xuM7ny91x1MDAwN1x1MDAxYzQvJlVLc1taXHUwMDBmO8U56ipcdTAwMTX0XHUwMDAy8KnZXHUwMDFjdMdN42FcdTAwMWRetdVcdTAwMDdvKHeu71x1MDAxM1x1MDAwMJ47xpDLlCFcdTAwMTnxPZNcdTAwMWR5t4BcdTAwMWX2U4Uph2DX1J9cZuHuXCI0pdCVxHmaLVx1MDAwNVx1MDAwMlx1MDAxY0s3XHUwMDAzaWWFwlhqhrE+ZeKP6Hw6XHUwMDFhQKlcdTAwMTVsULlcdTAwMWSBZuZ8UYJ2S0Fd9PbwU3nl0ceYeoRjwk8og6x45ZjKhDHx3rfOW3qxqG5cdTAwMWHYOHGlMHnQy72Rv5L16ypcdTAwMWFfTVx1MDAxYZxcdTAwMTWKSZjvvDtmhYBjhiCJ9elcdTAwMTl/3fqsXG64zEUwgLdjloYmXHUwMDEw9kVEgVx1MDAxY+7KdPKItVx1MDAwM1x1MDAwYr3eVVVrqedcdTAwMGIv8Hrjh3Upl8TMkZiIlaAsJZwqRIn1ZcnbJftcdTAwMWbjy6Yl1edHWDJGIIdcdTAwMTTG+6pgr/VJfIX0ypDylFx1MDAxMy5cdMR3z5C16vl6rKnakcG/0FS97F46xqh0rc9cdTAwMWYmSreWL9+0gz5ueVx1MDAxNVpIlFmKSYNcdTAwMDJOs1xmsvdHnP9cdTAwMTSHdFRuQ1ZpeLVw0bxvXHUwMDE39XG5U87sOqRudX7VhYaOM6G1ZFx1MDAxOVvOaEueXHUwMDAw4/xcdTAwMTFcdTAwMThcdTAwMTNcdTAwMTE7ckzoXnBcdTAwMTmZrlx1MDAxZDfhXHUwMDE1xlxmUiq+XHUwMDA0tyORXHUwMDAyxkzmVFx1MDAwNL9cZuxcbvPRXHUwMDE4r72IN3stXHUwMDE1ZkPTMExDslx1MDAxYynneadcdTAwMWN5vqXT6SB/VfNcdTAwMWUm5uJupvbxYMBrinylJPc/WVxm97H+J+I8y3f/fFL/07nhxozelIZhn4b1uddSe4N6XHUwMDEyxEspzJkoXG5lnMZcdTAwMTlwQFx1MDAwZVx1MDAxYXBAxUtXmFx1MDAwMtJOKov+IHRMUvknUv5Qh16XyFfULkNN6Vx1MDAwNCu9oy5cdTAwMTLlWeJyqZRnXHUwMDE1TuGXXHUwMDA3+lx1MDAwMXJ9IK6Ks12YXHUwMDEzhDiJXHKgIDxcdTAwMThAIUZlmVwilm5cdTAwMDCVQH73TFfeXFyatutFN/uRgDxhf/RnnU3HVFx1MDAxObe3/u1IrVx1MDAxNIGle/elZmNSPH9IXHUwMDAyMY+BXHUwMDE4YpJVZFx1MDAxZZsuxcd4p/9cdTAwMTSCJ1x1MDAwNXWSM6b3rJa/7F/J1HLrhO56p6khblx1MDAxZuGeXCJcdTAwMTEpylx1MDAxOFJlV4Cf3FN0cF5cdTAwMWZSJDNIdmzbqTCuhpovLimZVjgxfcl1pGBcdTAwMWSE5kxcbqJcdTAwMDNcdTAwMGJPcv3vzmpiOpI4Li1cdTAwMDJxzuZIXHUwMDEwfbZ8qZwvZE/YkU338dLRI8uSU+1cdTAwMTSqvdZ4cS5788tu5oYnykZcdTAwMDFcdTAwMTnR7FbmnlVcdIFcdTAwMDdVyTFFP/9cdTAwMThVcj8gernehKCXb7rmtd+pXGZcbo2PUCWFIzRcdFx1MDAxNa9JYVx1MDAxMMRcdTAwMDW6XHUwMDA0XHUwMDFmXGZ0KcBAJjLe0nUqmqRcdTAwMWJRZFx1MDAxYVbo+tK3x1x1MDAwMrpff8D0m6RPTH363Vx1MDAxOYljmlx1MDAxZVpL8eokLdxAp1x1MDAxOYYvxklamZJ574k477tcdTAwMTO60kiM6uawYS438yCCzG8j351Jgv6RNf71lLXOXzdcdTAwMTTpaCivaOaUcJrBN7R/ufKKXHUwMDA1u6NeJ9JQXHUwMDAwxGoowLLC543PxX1Kb6dzNchcdTAwMTRcdTAwMTjz9anSs3PapTKpUPtDVNRcdTAwMTFcdTAwMDFcciBcdTAwMTRiRCGK83ZcYj08O4yEfsJCUf3lIfmekiqPJMd9gshcbiR/4TiWM/7tkU5Jc76Lj+L/xYOIXHUwMDBmhuSboS/wXHUwMDFjXHUwMDBi8KNcZlx1MDAxOFxupOwpK550XHUwMDFmL1x1MDAxZGXSIaVGt1RyTFx1MDAxM1x1MDAxOUWurpE/1dVEYVPM5Fx1MDAxYozKRVx1MDAxMZdjM1x1MDAxZp9Sk1x1MDAwNIuZibzihGSCXFw4d1x1MDAxNlxyaOp3XHUwMDFmoUmKRyhcdTAwMTLAKcL7XHUwMDA1Y5E/czinXHUwMDBmXHUwMDEwo1x1MDAxY8hK6uWi71cjUWWWXHUwMDE2PEVcdTAwMTWaZGjmTMRcdTAwMTbCpD+GXHUwMDE3351cdTAwMWalXHUwMDFiwmZ7pmNcYlx1MDAwNqPYIzLiXHUwMDEzN1xiJTc4ZS2S6tOl5JHYM0ubylbVur+Yrd2KQVx1MDAwME1UjFxuUJxcdTAwMTaBSlY+pEU+ZTVqTV6X1IdcdTAwMWOZYoOi5lx1MDAwNN+NTFx1MDAwNHe1yEVOXVx1MDAxYtDRxzM8X62LRk7rg0JcdTAwMDItUjkmZKJMvClcdTAwMDXFTvHvT/xvi9VcdTAwMDT0nFx1MDAxMZJ29kVmVJHprjwnKkddeJ7rPyYtN8Ve3+peKLqv2Sdfgf6WnqfDP6+OVTBvKiMhXHUwMDBi11x1MDAwYpJvVKBcdTAwMGKS8Vx1MDAxZjNF+FWp+lx1MDAwMv7eOChPXHUwMDFhi+rgaql1XHUwMDE2NyvmryalXfhpz1x1MDAwNyxo59bN4tTS7O50XHUwMDAwNCVcdTAwMDH810fAXHUwMDBmXHRcdTAwMDBcdTAwMTjy2Fx1MDAxNVVcYlx1MDAxZVxccsJcdTAwMTQuc4WnPruSXHUwMDAy+1+FqsdogJZ2O7tosZK6qNpXy4KfWV1ob6pccmKvlkhcdTAwMDIlRlx1MDAwM1CaxVwiYj3gXHUwMDAxXHUwMDFjM4Ncbszon58qgdhcboLTUVx1MDAwNEdcdTAwMDDcPGbqXHUwMDA0ck4pXHUwMDA2caXmh2dHgYxlXGZo+pXmQmeIzrxcdTAwMDfgi3qr3ayd8JTo61x1MDAwZaa0Lqx/MbiuaWrJnDfUbm1wsSYoTFx1MDAwNGLc+k9Eslxm80PTXHUwMDE3XyRcdTAwMWVcIlE9gkSCN0vvYlx1MDAxN33sVNC9XryJZaAglrpcdTAwMTdccrGyu2o9XHUwMDAxiI28esJcdTAwMTS+6F06XGJcdTAwMGVu64uyPVxuvMJcZkxJ31x1MDAxY4SZxiRx0Vx1MDAxY0BvXbWB6FfVXFzUetdvw+5qile38oO+Wj1Qdq8lWYqpplA1pzBOuYhw43L0gvSDdpVSmVx1MDAxMsjTL0ngL1x1MDAxMv/vKpvzwHA8UFx1MDAxN/mMW7yrrLBKa5e2/1x1MDAxNlOzXHUwMDE39cWZXHUwMDFhXGJRVj601cBnLJpLTayPmGNCXG6mnJBY8YV8r/VZfFx1MDAxOYWYfIBbeLT47lmjqutcdTAwMWF+lFx1MDAxMv2RXHUwMDE2kS7sRVx1MDAxMJ507dz/3eV07FZjRs/ppK9cdTAwMGaGpD7qN4ZNfmOzZDwrcVlcdTAwMWOWlVx1MDAwZu1cdTAwMWTyKeeCKHbU2XXbYP11xa1yz3lQO9sup0h865hEjlxivGSG4tdcdTAwMTnKhyNBKDOGXHUwMDE1XHUwMDBl0F9usfZcdTAwMWRQ0dMo7SnltVD7UX0qRVx1MDAwNVx1MDAxZZuCMt/03OC7XHUwMDEzzbdGXHUwMDE1XHUwMDFjXHUwMDAypYm0tDTpvyXPd0P3lGeC0nqwlNaK3Fx1MDAwZc+7vVmbkGFmQo3LLqnvxndHqI+4dZxRXHUwMDEyXHUwMDE4xJfQf8qqOTKa1HW56fauM+Bq1n7ok9n49kOUx1x1MDAwMS84flx1MDAwZVxiXHUwMDAzXHUwMDExd9D99SCb14pcdTAwMGX7uzJcdTAwMTSPXGZJ+jUp79ZcdTAwMWWqqS980/htXHUwMDAzkLijIDcqWVVvro3vzjdcdTAwMDFbayEo/EHff/264c+IeFxmQtfXxuYjgYFcdTAwMTg08bySXHUwMDE3Pbcw3uKxs9JcdKuW/5enTkfvZEw8tIvlRpH4sO+Ob5pDfz5IpHeUuG1SQLQu9cBWSJ/TbVx1MDAxOVebLeLxjN3Qm159MLvRav6HaJ5jiuEoZFx1MDAxY0GO91x1MDAxY5SNU8NcdTAwMGb6LVxuZMLjSb+I5d165zE9/FQttuHLXFz+XHUwMDFlmkEoQoHvTtdcdTAwMWM2W1x1MDAxN49cdTAwMTM89vqUvZSkXHUwMDBmko52oKP2tEhcdTAwMTb2qtPoMY1OVspQxYny4SRu804lyzgmXHUwMDA3Nkr7SodcdTAwMWYgu/12sJlQm1x1MDAwMlGyl/g+i7JcdTAwMTNcdTAwMDep5lBhXHUwMDFmsFx1MDAwMVx1MDAxMlx1MDAxMv/dmc1O4k5cYlx1MDAwYnrCuYaX3UtcdTAwMDdBh7K8Z4bBTFmAKaipdSRDL1x0grHLa4lcIuJcdTAwMDKIXHUwMDBlXHUwMDE0iHwheFx1MDAwMMEjbCuUXHRcdTAwMDUvPaDdnMBhp1x1MDAxZXCMXHUwMDEwUVDaxlx1MDAxNUbTw++ak8qFtlx1MDAxNkhN09bWp7929medTYfQ4fSOruxcXOZ+uXCqi3OoXz7ku4mMpFx1MDAxY+NCXHUwMDAzQrIyYeRr0vg4RHvH5OllXHUwMDAxKVx1MDAwNHFWXHUwMDEyoINLQbCiXHUwMDAwWeFy2uVXUIGEvstMPsq8KoJJ8+9cdTAwMDJofGfTXHUwMDAxtJbzwbhcdTAwMDVccsvVXGZU88KL80E9UXlV7KbeXHUwMDA0ZGVcdTAwMDV/ubGvXHUwMDAy3VZcdTAwMGKq0/KMlC6VotZcdTAwMDKFZe+2RFx1MDAxM8Sx/aPiWM5FPKrsLbvY2NPDRdRcXEaEsp0l7ulssMSB0Fx1MDAwZe8qw9o1Xo+bYZ88yPGdTVx1MDAwN2R9jpXOzbjRX1318FxcKV2FfS+TXGLkuCk2XHUwMDA2s4BcdTAwMWbAOO1cXNWnw3hwXHUwMDA0xVx1MDAxMHGCo4LKXHUwMDE4jKFycCNcblx1MDAwNGVFxK1yysvHXHUwMDE14Vx1MDAwMmD4vmyU6zimXHUwMDFlbbzgPq08eqwtdqOJpplcdTAwMWKa31x1MDAxZH/DzWOe51vwmFx1MDAxM1x1MDAxZVpcdTAwMTnDiiqdNlx1MDAwYlx1MDAwZiTxrk1tdtLLqz7sSdNRICt/XFy3XHUwMDExb1x1MDAwZsrth1x1MDAwMrxcdTAwMWNcXGVy9jSJXHUwMDAyiUtnXHUwMDAxzLOcXHUwMDFl3vn/s3pcdTAwMDJ5kp/chlx1MDAxOTS3e6WeVV0tc12/nECFaEeoXHUwMDEwXHUwMDE5XHUwMDEymcmMxKlcdTAwMTBweC9cdTAwMWJcZqOSTZmmudVcImRcIlAgXGYxsiuy73Hp/yaeQHxnU8qKnY9bprBJ42ov53c69VZ+XHUwMDE15lx1MDAxM4FcdTAwMWO7X5WcPbjl3Kf1XHUwMDA00sJ4eFx1MDAwNMacyFx1MDAxMHIsx+av9+P17epqwlx1MDAxOFKQknpoXHUwMDFlrdJ81+rqt1x1MDAxOMhgXHUwMDAzzktcdTAwMDP5N7f5P3+kdHRCs0r7tcvGg/rgduc31O5RePe2XHUwMDEyXHUwMDFhiLNIXHUwMDExuv/lri2b35yLU1x1MDAwZkB0hFx1MDAwMszis+boM5bXgvlgXmpej0zsoWIw6FXUvrzdXHUwMDA0VJzQnjlcdTAwMTM6QqvprNKtr1x1MDAxNovOlMAgifY4Jlx1MDAxZIBcdTAwMTWOoYgl4jZn+Nkv1VGKXHUwMDA07ZSnnHpXqKJw8t5tK6WCs7R815lcdTAwMWT0XHUwMDAx2IvWZ61AXlxc7Vx1MDAxOXtdXFxnN+eW5q6V8X1NXHT3+3LwXHUwMDEwXGaMnNdTbjrNLrw/X75pYozIKFx1MDAwYqBcZlx1MDAwMFx1MDAwNbvltOuzlz85+Vx1MDAwMb+B8E9ZRM1uanfjde9e7mvm1NPasFGqdHdpz1x1MDAxNFfYW96MWsubu+uBtyTkdqF9hDrQj5hcdTAwMGJnTCGC7NhF1vsq4llcdTAwMTlcYt9dXHUwMDEx3kTKP1x1MDAwMpKGMkjrV1x1MDAxND5MXHUwMDAzfMTvKNzolcv2WuPVSlx1MDAwNd6B3JCXUa73XHUwMDE27F97/nFbLmF0eO+2tPdK+ds4/lx1MDAwNTDPTIplNHDPl9Xb3MBcdTAwMWY0XHUwMDA31Vx1MDAwNKxcdTAwMWHHWG5cdTAwMDIolHHshukxO9RuLbdcImPMXHUwMDE1mLrjz2VC3pXKP1xi62k48Vx1MDAxZoFqrq9d5vWacl8wV1Vn0Ow2xvk31ZbuT4zHVY99sVx1MDAxYVPYjtCo0Fd5sFhcdTAwMTTL82Dasq9n41x1MDAwNKyab2eVXHUwMDAyXHUwMDExXHUwMDA2YVx1MDAxNL/3XHUwMDAx3bO221x1MDAxZtJUXHUwMDE4hUr6O6BcdIdf3pnr+0L1Laj22iP1XHUwMDFjXHUwMDA1hZWxXHUwMDE4uJN5uX3R1m5cdTAwMTKhXHUwMDFhN7X2hWrctqj2uW2080q9uih0XGJ0p8tcdTAwMGWtJEB19HZUMcSYyCx+QSo7XFyKhlx1MDAxMFx1MDAwNlx1MDAwMIO042FcdTAwMTLtpUretdHQJ0Q1nF2UnGag3iCnIyv9er9oXHUwMDE3qolQjct9f6FcdTAwMWGD6rlxXHUwMDBlLa1mqdPWaNRgXHUwMDA1v3aOw1x1MDAwNKiOj5lcdTAwMDRcdTAwMTdcdTAwMDZSYeLfWFZcdTAwMGabVYxcdTAwMTmnXHUwMDAwp16VhmC03dhcdTAwMTerR7HaXHUwMDFlTkJkUF0ug3Lf8uu6nM/LiVhVvlh9XHUwMDFiq9NJf1HoPVxmKq1cdTAwMTl3XHUwMDFhfkelV0UvXHUwMDAxq5O3s1xuo1xy8yCG8S7wYVZcdMVcdTAwMThQpqT9e1x1MDAwN1xiXHUwMDAx8GVWXHUwMDBmo/rLXHUwMDBmQTjTPE9ccsXYnT1tSyNkyjJeJdFcdTAwMWXbQtM7e06hb5qqrmFcdTAwMTZcdTAwMWNtaL9cdTAwMWXHs6Vlrs7jUrubP5EsbrRFhI+52Vx1MDAxMufPX/78XHUwMDBmr1xmcWkifQ==
                <!-- payload-end -->
        </metadata>
        <defs>
                <style class="style-fonts">
                        @font-face {
                                font-family: Comic Shanns;
                                src: url(https://esm.sh/@excalidraw/excalidraw@0.18.0/dist/prod/fonts/ComicShanns/ComicShanns-Regular-279a7b317d12eb88de06167bd672b4b4.woff2);
                        }

                        @font-face {
                                font-family: Excalifont;
                                src: url(https://esm.sh/@excalidraw/excalidraw@0.18.0/dist/prod/fonts/Excalifont/Excalifont-Regular-a88b72a24fb54c9f94e3b5fdaa7481c9.woff2);
                        }
                </style>
        </defs>
        <g stroke-linecap="round" transform="translate(10 10) rotate(0 210 880)">
                <path d="M32 0 C103.2 3.8, 178.32 2.15, 388 0 C407.31 2, 419.96 12.56, 420 32 C415.74 616.06, 415.22 1196.61, 420 1728 C416.92 1751.82, 412.22 1763.53, 388 1760 C253.15 1758.82, 111.79 1756.82, 32 1760 C8.31 1759.8, -1.64 1751.58, 0 1728 C7.69 1366.37, 8.57 1003.16, 0 32 C-0.53 10.02, 11.54 1.64, 32 0"
                        stroke="none" stroke-width="0" fill="#e9ecef"></path>
                <path d="M32 0 C145.05 -0.18, 258.4 0.72, 388 0 M32 0 C145.56 1.48, 258.68 1.1, 388 0 M388 0 C407.86 -0.6, 419.17 12.45, 420 32 M388 0 C409.68 -1.85, 419.16 10.92, 420 32 M420 32 C415.08 681.56, 415.96 1330.6, 420 1728 M420 32 C415 586.79, 414.89 1141.03, 420 1728 M420 1728 C421.33 1749.56, 408.61 1760.01, 388 1760 M420 1728 C419.73 1748.94, 409.02 1760.21, 388 1760 M388 1760 C313.7 1761.03, 240.59 1761.63, 32 1760 M388 1760 C280.36 1758.46, 173.66 1757.51, 32 1760 M32 1760 C9.3 1761.71, 2 1748.77, 0 1728 M32 1760 C11.03 1759.45, -1.5 1747.4, 0 1728 M0 1728 C-2.51 1370.97, -3.17 1015.06, 0 32 M0 1728 C6.13 1086.7, 6.65 445.52, 0 32 M0 32 C0.29 9.16, 12.13 -0.52, 32 0 M0 32 C-0.9 12.12, 10.09 1.09, 32 0"
                        stroke="transparent" stroke-width="2" fill="none"></path>
        </g>
        <g transform="translate(90 190) rotate(0 69.7734375 10)"><text x="0" y="14"
                        font-family="Comic Shanns, Segoe UI Emoji" font-size="16px" fill="#343a40" text-anchor="start"
                        style="white-space: pre;" direction="ltr" dominant-baseline="alphabetic">Run Sketch
                        Client(s)</text></g>
        <g transform="translate(90 550) rotate(0 67.03515625 10)"><text x="0" y="14"
                        font-family="Comic Shanns, Segoe UI Emoji" font-size="16px" fill="#343a40" text-anchor="start"
                        style="white-space: pre;" direction="ltr" dominant-baseline="alphabetic">Run Sketch
                        Servers</text></g>
        <g transform="translate(90 570) rotate(0 120.21875 10)"><text x="0" y="14"
                        font-family="Comic Shanns, Segoe UI Emoji" font-size="16px" fill="#868e96" text-anchor="start"
                        style="white-space: pre;" direction="ltr" dominant-baseline="alphabetic">Route to local services
                        with Caddy</text></g>
        <g stroke-linecap="round" transform="translate(50 250) rotate(0 170 100.58823529411768)">
                <path d="M32 0 C113.37 3.63, 197.77 4.59, 308 0 C326.13 -2.25, 341 13.89, 340 32 C339.87 64.39, 338.88 100.85, 340 169.18 C340.13 191.49, 328.59 201.99, 308 201.18 C227.11 198.23, 142.3 196.38, 32 201.18 C13.84 200.41, -0.94 193.26, 0 169.18 C-1.57 117.42, -2.79 69.54, 0 32 C3.18 13.9, 9.53 -1.58, 32 0"
                        stroke="none" stroke-width="0" fill="#ced4da"></path>
                <path d="M32 0 C116.85 -1.36, 200.2 -2.29, 308 0 M32 0 C112.1 -0.66, 192.46 -1.34, 308 0 M308 0 C329 -0.49, 341.71 11.5, 340 32 M308 0 C330.35 -2.23, 339.4 9.65, 340 32 M340 32 C338.84 62.11, 339.3 91.6, 340 169.18 M340 32 C339.06 64.32, 339.63 97.43, 340 169.18 M340 169.18 C341.13 188.72, 331.27 201.26, 308 201.18 M340 169.18 C339.88 188.39, 331.2 203.03, 308 201.18 M308 201.18 C253.37 197.6, 197.67 198.93, 32 201.18 M308 201.18 C231.52 200.08, 155.98 200.1, 32 201.18 M32 201.18 C12.21 199.34, 0.21 191.52, 0 169.18 M32 201.18 C9.14 202.26, 0.54 192.53, 0 169.18 M0 169.18 C-3.14 132.55, -2.1 94.8, 0 32 M0 169.18 C0.5 121.54, -0.49 75.31, 0 32 M0 32 C1.43 9.61, 10.76 1.23, 32 0 M0 32 C-1.54 12.02, 8.66 -1.63, 32 0"
                        stroke="transparent" stroke-width="2" fill="none"></path>
        </g>
        <g transform="translate(90 290) rotate(0 26.8798828125 12.5)"><text x="0" y="17.5"
                        font-family="Comic Shanns, Segoe UI Emoji" font-size="20px" fill="#343a40" text-anchor="start"
                        style="white-space: pre;" direction="ltr" dominant-baseline="alphabetic">TODO</text></g>
        <g transform="translate(90 210) rotate(0 98.9140625 10)"><text x="0" y="14"
                        font-family="Comic Shanns, Segoe UI Emoji" font-size="16px" fill="#868e96" text-anchor="start"
                        style="white-space: pre;" direction="ltr" dominant-baseline="alphabetic">Typically Embedded in
                        Apps</text></g>
        <g stroke-linecap="round" transform="translate(50 610) rotate(0 170 200)">
                <path d="M32 0 C114.15 6.29, 197.92 2.91, 308 0 C331.43 -2.86, 341.07 9.48, 340 32 C344.51 164.82, 342.11 298.78, 340 368 C341.61 392.35, 331.29 400.59, 308 400 C214.96 402.55, 119.3 405.66, 32 400 C10.66 402.06, -2.41 391.92, 0 368 C2.31 269.62, 1.32 167.32, 0 32 C0.45 10.04, 13.99 -1.57, 32 0"
                        stroke="none" stroke-width="0" fill="#ced4da"></path>
                <path d="M32 0 C95.48 -1.89, 159.46 -3.15, 308 0 M32 0 C92.13 -0.38, 150.48 -1.02, 308 0 M308 0 C328.91 1.56, 338.15 8.96, 340 32 M308 0 C328.55 0.62, 342.25 12.6, 340 32 M340 32 C337.95 137.08, 339.15 242.88, 340 368 M340 32 C337.16 148.42, 337.77 265.98, 340 368 M340 368 C338.49 388.21, 330.45 399.98, 308 400 M340 368 C341.21 390.34, 328.34 400.67, 308 400 M308 400 C204.67 399.4, 104.98 401.97, 32 400 M308 400 C197.75 401.08, 88.58 399.66, 32 400 M32 400 C9.72 398.69, -0.11 388.42, 0 368 M32 400 C12.1 398.01, -1.69 387.32, 0 368 M0 368 C-1.34 297.28, -0.99 227.29, 0 32 M0 368 C-1.28 251.37, -0.34 135.52, 0 32 M0 32 C-1.37 9.59, 10.17 0.95, 32 0 M0 32 C-0.61 11.32, 11.93 0.22, 32 0"
                        stroke="transparent" stroke-width="2" fill="none"></path>
        </g>
        <g transform="translate(90 650) rotate(0 89.8486328125 12.5)"><text x="0" y="17.5"
                        font-family="Comic Shanns, Segoe UI Emoji" font-size="20px" fill="#343a40" text-anchor="start"
                        style="white-space: pre;" direction="ltr" dominant-baseline="alphabetic">Development
                        Server</text></g>
        <g transform="translate(90 750) rotate(0 122.8046875 20)"><text x="0" y="14"
                        font-family="Comic Shanns, Segoe UI Emoji" font-size="16px" fill="#343a40" text-anchor="start"
                        style="white-space: pre;" direction="ltr" dominant-baseline="alphabetic">Started either on
                        system startup or</text><text x="0" y="34" font-family="Comic Shanns, Segoe UI Emoji"
                        font-size="16px" fill="#343a40" text-anchor="start" style="white-space: pre;" direction="ltr"
                        dominant-baseline="alphabetic">when the user starts their IDE.</text></g>
        <g transform="translate(90 807.5) rotate(0 126.3046875 30)"><text x="0" y="14"
                        font-family="Comic Shanns, Segoe UI Emoji" font-size="16px" fill="#343a40" text-anchor="start"
                        style="white-space: pre;" direction="ltr" dominant-baseline="alphabetic">When editor (vscode)
                        starts, check</text><text x="0" y="34" font-family="Comic Shanns, Segoe UI Emoji"
                        font-size="16px" fill="#343a40" text-anchor="start" style="white-space: pre;" direction="ltr"
                        dominant-baseline="alphabetic">for activity at the address we expect</text><text x="0" y="54"
                        font-family="Comic Shanns, Segoe UI Emoji" font-size="16px" fill="#343a40" text-anchor="start"
                        style="white-space: pre;" direction="ltr" dominant-baseline="alphabetic">to find the dev server
                        (from config).</text></g>
        <g transform="translate(90 887.5) rotate(0 109.00390625 20)"><text x="0" y="14"
                        font-family="Comic Shanns, Segoe UI Emoji" font-size="16px" fill="#343a40" text-anchor="start"
                        style="white-space: pre;" direction="ltr" dominant-baseline="alphabetic">If no server is
                        running, start an</text><text x="0" y="34" font-family="Comic Shanns, Segoe UI Emoji"
                        font-size="16px" fill="#343a40" text-anchor="start" style="white-space: pre;" direction="ltr"
                        dominant-baseline="alphabetic">instance and retry again in 3s ..</text></g>
        <g transform="translate(90 690) rotate(0 119.76953125 20)"><text x="0" y="14"
                        font-family="Comic Shanns, Segoe UI Emoji" font-size="16px" fill="#343a40" text-anchor="start"
                        style="white-space: pre;" direction="ltr" dominant-baseline="alphabetic">Run as either a daemon
                        or system</text><text x="0" y="34" font-family="Comic Shanns, Segoe UI Emoji" font-size="16px"
                        fill="#343a40" text-anchor="start" style="white-space: pre;" direction="ltr"
                        dominant-baseline="alphabetic">service depending on the host os.</text></g>
        <g transform="translate(90 1090) rotate(0 113.01953125 10)"><text x="0" y="14"
                        font-family="Comic Shanns, Segoe UI Emoji" font-size="16px" fill="#343a40" text-anchor="start"
                        style="white-space: pre;" direction="ltr" dominant-baseline="alphabetic">Run Support Services
                        (Optional)</text></g>
        <g transform="translate(90 1110) rotate(0 120.21875 10)"><text x="0" y="14"
                        font-family="Comic Shanns, Segoe UI Emoji" font-size="16px" fill="#868e96" text-anchor="start"
                        style="white-space: pre;" direction="ltr" dominant-baseline="alphabetic">Route to local services
                        with Caddy</text></g>
        <g transform="translate(510 1410) rotate(0 38.720703125 12.5)"><text x="0" y="17.5"
                        font-family="Comic Shanns, Segoe UI Emoji" font-size="20px" fill="#1e1e1e" text-anchor="start"
                        style="white-space: pre;" direction="ltr" dominant-baseline="alphabetic">COTURN</text></g>
        <g transform="translate(510 1190) rotate(0 17.9248046875 12.5)"><text x="0" y="17.5"
                        font-family="Comic Shanns, Segoe UI Emoji" font-size="20px" fill="#1e1e1e" text-anchor="start"
                        style="white-space: pre;" direction="ltr" dominant-baseline="alphabetic">PDS</text></g>
        <g stroke-linecap="round" transform="translate(50 1150) rotate(0 170 190)">
                <path d="M32 0 C136.5 -4.52, 247.64 -4.45, 308 0 C330.7 -0.01, 342.8 13.51, 340 32 C341.45 150.43, 341.42 266.44, 340 348 C336.44 366.86, 332.77 378.53, 308 380 C215.76 377.39, 124.55 378.27, 32 380 C11.77 382.03, 0.37 370.06, 0 348 C-0.89 266.5, -3.34 181.59, 0 32 C3.33 10.51, 13.21 -1.38, 32 0"
                        stroke="none" stroke-width="0" fill="#ced4da"></path>
                <path d="M32 0 C90.63 -0.37, 147.49 -2.7, 308 0 M32 0 C137.35 -0.86, 244.06 -2.2, 308 0 M308 0 C329.65 -0.26, 339.35 10.13, 340 32 M308 0 C330.59 -0.71, 338.73 12.27, 340 32 M340 32 C339.6 123.78, 338.21 214.97, 340 348 M340 32 C341.57 115.91, 341.37 199.12, 340 348 M340 348 C341.02 370.2, 328.73 378.49, 308 380 M340 348 C339.04 368.33, 327.87 380.05, 308 380 M308 380 C222.23 379.6, 134.62 381.33, 32 380 M308 380 C244.17 381.99, 180.31 381.13, 32 380 M32 380 C12.4 381.7, 1.76 370.67, 0 348 M32 380 C8.81 381.26, -1.81 369.6, 0 348 M0 348 C-2.8 273.68, -2.21 200.54, 0 32 M0 348 C-1.11 277.82, -1.11 207.37, 0 32 M0 32 C1.27 9.34, 11.26 -1.97, 32 0 M0 32 C1.55 12.71, 8.57 2.07, 32 0"
                        stroke="transparent" stroke-width="2" fill="none"></path>
        </g>
        <g transform="translate(90 1190) rotate(0 111.5234375 12.5)"><text x="0" y="17.5"
                        font-family="Comic Shanns, Segoe UI Emoji" font-size="20px" fill="#343a40" text-anchor="start"
                        style="white-space: pre;" direction="ltr" dominant-baseline="alphabetic">Moodring Service
                        Cluster</text></g>
        <g transform="translate(90 1230) rotate(0 124.02734375 20)"><text x="0" y="14"
                        font-family="Comic Shanns, Segoe UI Emoji" font-size="16px" fill="#343a40" text-anchor="start"
                        style="white-space: pre;" direction="ltr" dominant-baseline="alphabetic">Personal Data Server
                        for user repos</text><text x="0" y="34" font-family="Comic Shanns, Segoe UI Emoji"
                        font-size="16px" fill="#343a40" text-anchor="start" style="white-space: pre;" direction="ltr"
                        dominant-baseline="alphabetic">and dev auth via @ proto.</text></g>
        <g transform="translate(90 1290) rotate(0 120.078125 30)"><text x="0" y="14"
                        font-family="Comic Shanns, Segoe UI Emoji" font-size="16px" fill="#343a40" text-anchor="start"
                        style="white-space: pre;" direction="ltr" dominant-baseline="alphabetic">Secured, authenticated
                        SQLd</text><text x="0" y="34" font-family="Comic Shanns, Segoe UI Emoji" font-size="16px"
                        fill="#343a40" text-anchor="start" style="white-space: pre;" direction="ltr"
                        dominant-baseline="alphabetic">(or Turso Server?) for data storage</text><text x="0" y="54"
                        font-family="Comic Shanns, Segoe UI Emoji" font-size="16px" fill="#343a40" text-anchor="start"
                        style="white-space: pre;" direction="ltr" dominant-baseline="alphabetic">and session
                        persistence. </text></g>
        <g transform="translate(90 1370) rotate(0 108.91015625 20)"><text x="0" y="14"
                        font-family="Comic Shanns, Segoe UI Emoji" font-size="16px" fill="#343a40" text-anchor="start"
                        style="white-space: pre;" direction="ltr" dominant-baseline="alphabetic">COTURN server for
                        dev/testing</text><text x="0" y="34" font-family="Comic Shanns, Segoe UI Emoji" font-size="16px"
                        fill="#343a40" text-anchor="start" style="white-space: pre;" direction="ltr"
                        dominant-baseline="alphabetic">WebRTC locally.</text></g>
        <g transform="translate(510 1310) rotate(0 23.447265625 12.5)"><text x="0" y="17.5"
                        font-family="Comic Shanns, Segoe UI Emoji" font-size="20px" fill="#1e1e1e" text-anchor="start"
                        style="white-space: pre;" direction="ltr" dominant-baseline="alphabetic">SQLd</text></g>
        <g transform="translate(510 650) rotate(0 78.076171875 12.5)"><text x="0" y="17.5"
                        font-family="Comic Shanns, Segoe UI Emoji" font-size="20px" fill="#1e1e1e" text-anchor="start"
                        style="white-space: pre;" direction="ltr" dominant-baseline="alphabetic">Atlas Relay
                        Server</text></g>
        <g transform="translate(510 770) rotate(0 77.529296875 12.5)"><text x="0" y="17.5"
                        font-family="Comic Shanns, Segoe UI Emoji" font-size="20px" fill="#1e1e1e" text-anchor="start"
                        style="white-space: pre;" direction="ltr" dominant-baseline="alphabetic">Atlas Store
                        Server</text></g>
        <g transform="translate(510 190) rotate(0 75.5322265625 12.5)"><text x="0" y="17.5"
                        font-family="Comic Shanns, Segoe UI Emoji" font-size="20px" fill="#1e1e1e" text-anchor="start"
                        style="white-space: pre;" direction="ltr" dominant-baseline="alphabetic">Atlas Relay
                        Client</text></g>
        <g transform="translate(510 230) rotate(0 141.09765625 20)"><text x="0" y="14"
                        font-family="Comic Shanns, Segoe UI Emoji" font-size="16px" fill="#343a40" text-anchor="start"
                        style="white-space: pre;" direction="ltr" dominant-baseline="alphabetic">Connects to either
                        local or remote</text><text x="0" y="34" font-family="Comic Shanns, Segoe UI Emoji"
                        font-size="16px" fill="#343a40" text-anchor="start" style="white-space: pre;" direction="ltr"
                        dominant-baseline="alphabetic">relay server(s) for bi-directional streams.</text></g>
        <g transform="translate(510 310) rotate(0 74.9853515625 12.5)"><text x="0" y="17.5"
                        font-family="Comic Shanns, Segoe UI Emoji" font-size="20px" fill="#1e1e1e" text-anchor="start"
                        style="white-space: pre;" direction="ltr" dominant-baseline="alphabetic">Atlas Store
                        Client</text></g>
        <g transform="translate(510 350) rotate(0 120.36328125 20)"><text x="0" y="14"
                        font-family="Comic Shanns, Segoe UI Emoji" font-size="16px" fill="#343a40" text-anchor="start"
                        style="white-space: pre;" direction="ltr" dominant-baseline="alphabetic">Connects to either
                        local or remote</text><text x="0" y="34" font-family="Comic Shanns, Segoe UI Emoji"
                        font-size="16px" fill="#343a40" text-anchor="start" style="white-space: pre;" direction="ltr"
                        dominant-baseline="alphabetic">store server(s) for </text></g>
        <g transform="translate(114.3642578125 50) rotate(0 105.6357421875 17.5)"><text x="105.6357421875" y="24.668"
                        font-family="Excalifont, Xiaolai, Segoe UI Emoji" font-size="28px" fill="#343a40"
                        text-anchor="middle" style="white-space: pre;" direction="ltr"
                        dominant-baseline="alphabetic">Dev Environment</text></g>
        <g transform="translate(193.1201171875 90) rotate(0 26.8798828125 12.5)"><text x="26.8798828125" y="17.5"
                        font-family="Comic Shanns, Segoe UI Emoji" font-size="20px" fill="#868e96" text-anchor="middle"
                        style="white-space: pre;" direction="ltr" dominant-baseline="alphabetic">TODO</text></g>
        <g transform="translate(510 690) rotate(0 21.50390625 10)"><text x="0" y="14"
                        font-family="Comic Shanns, Segoe UI Emoji" font-size="16px" fill="#343a40" text-anchor="start"
                        style="white-space: pre;" direction="ltr" dominant-baseline="alphabetic">TODO</text></g>
        <g transform="translate(510 810) rotate(0 21.50390625 10)"><text x="0" y="14"
                        font-family="Comic Shanns, Segoe UI Emoji" font-size="16px" fill="#343a40" text-anchor="start"
                        style="white-space: pre;" direction="ltr" dominant-baseline="alphabetic">TODO</text></g>
        <g transform="translate(510 1230) rotate(0 21.50390625 10)"><text x="0" y="14"
                        font-family="Comic Shanns, Segoe UI Emoji" font-size="16px" fill="#343a40" text-anchor="start"
                        style="white-space: pre;" direction="ltr" dominant-baseline="alphabetic">TODO</text></g>
        <g transform="translate(510 1350) rotate(0 21.50390625 10)"><text x="0" y="14"
                        font-family="Comic Shanns, Segoe UI Emoji" font-size="16px" fill="#343a40" text-anchor="start"
                        style="white-space: pre;" direction="ltr" dominant-baseline="alphabetic">TODO</text></g>
        <g transform="translate(510 1450) rotate(0 21.50390625 10)"><text x="0" y="14"
                        font-family="Comic Shanns, Segoe UI Emoji" font-size="16px" fill="#343a40" text-anchor="start"
                        style="white-space: pre;" direction="ltr" dominant-baseline="alphabetic">TODO</text></g>
</svg>